<svg xmlns="http://www.w3.org/2000/svg" xmlns:xlink="http://www.w3.org/1999/xlink" id="Capa_1" width="512" height="512" x="0" y="0" enable-background="new 0 0 463 463" version="1.1" viewBox="0 0 463 463" xml:space="preserve"><g><path fill="#017a68" d="M423,127.5c0-10.791-7.313-19.899-17.241-22.647C411.521,97.987,415,89.144,415,79.5c0-21.78-17.72-39.5-39.5-39.5 c-2.577,0-5.175,0.275-7.771,0.823C360.407,30.312,348.548,24,335.5,24c-5.023,0-9.935,0.94-14.526,2.758 C313.887,15.279,301.291,8,287.5,8c-8.807,0-17.297,3.004-24.15,8.33C256.053,6.265,244.281,0,231.5,0s-24.553,6.265-31.85,16.33 C192.797,11.004,184.307,8,175.5,8c-13.791,0-26.387,7.279-33.474,18.758C137.435,24.94,132.523,24,127.5,24 c-13.048,0-24.907,6.312-32.229,16.823C92.675,40.275,90.077,40,87.5,40C65.72,40,48,57.72,48,79.5 c0,9.644,3.479,18.487,9.241,25.353C47.313,107.601,40,116.709,40,127.5c0,10.568,7.012,19.526,16.627,22.472l28.336,274.885 c0.594,6.096,4.998,11.053,11.036,13.112v9.531c0,8.547,6.953,15.5,15.5,15.5h240c8.547,0,15.5-6.953,15.5-15.5v-9.531 c6.038-2.056,10.441-7.006,11.032-13.07l28.34-274.927C415.988,147.026,423,138.068,423,127.5z M87.5,55 c2.8,0,5.7,0.56,8.622,1.663c3.632,1.373,7.712-0.255,9.403-3.751C109.674,44.331,118.094,39,127.5,39 c4.335,0,8.532,1.131,12.243,3.279c-3.831,1.535-7.419,3.849-10.517,6.947c-2.929,2.929-2.929,7.678,0,10.606 c2.928,2.929,7.677,2.93,10.606,0.001c6.434-6.434,16.901-6.434,23.335,0c1.464,1.464,3.384,2.196,5.303,2.196 s3.839-0.732,5.303-2.197c2.929-2.929,2.929-7.678,0-10.606c-5.95-5.949-13.707-9.008-21.52-9.193 c0.084-0.188,0.17-0.376,0.238-0.573C155.938,29.614,165.184,23,175.5,23c7.926,0,15.161,3.742,19.852,10.268 c1.631,2.268,4.389,3.444,7.15,3.047c2.765-0.395,5.081-2.293,6.011-4.926C211.978,21.586,221.215,15,231.5,15 s19.522,6.586,22.987,16.389c0.93,2.633,3.247,4.531,6.011,4.926c2.765,0.397,5.52-0.78,7.15-3.047 C272.339,26.742,279.574,23,287.5,23c10.316,0,19.563,6.614,23.008,16.46c0.204,0.583,0.482,1.13,0.814,1.636 c-5.166,1.38-10.05,4.084-14.095,8.13c-2.929,2.929-2.929,7.678,0,10.606c2.928,2.929,7.677,2.93,10.606,0.001 c6.433-6.434,16.9-6.434,23.334,0c1.464,1.464,3.384,2.196,5.303,2.196s3.839-0.732,5.303-2.197c2.929-2.929,2.929-7.678,0-10.606 c-4.39-4.389-9.764-7.201-15.418-8.453C329.241,39.61,332.332,39,335.5,39c9.406,0,17.826,5.331,21.976,13.912 c1.69,3.496,5.77,5.124,9.403,3.751C369.8,55.56,372.7,55,375.5,55c13.509,0,24.5,10.99,24.5,24.5S389.009,104,375.5,104h-17.051 C363.795,97.261,367,88.75,367,79.5c0-4.143-3.358-7.5-7.5-7.5s-7.5,3.357-7.5,7.5c0,13.51-10.991,24.5-24.5,24.5h-136 c-9.098,0-16.5-7.402-16.5-16.5c0-4.143-3.358-7.5-7.5-7.5s-7.5,3.357-7.5,7.5c0,6.046,1.716,11.698,4.681,16.5H87.5 C73.991,104,63,93.01,63,79.5S73.991,55,87.5,55z M71.813,151h32.707l19.638,273H102.28c-1.339,0-2.164-0.528-2.407-0.796 L71.813,151z M295.687,151l-3.476,85.024C285.807,233.438,278.82,232,271.5,232h-9.711l1.109-81H295.687z M298.93,424l4.315-91.016 C317.592,322.94,327,306.303,327,287.5c0-17.174-7.843-32.55-20.134-42.738L310.7,151h32.742l-19.638,273H298.93z M179.087,424 l-3.948-83.464c5.174,1.599,10.668,2.464,16.361,2.464h11.235l1.289,81H179.087z M191.5,247h80c22.332,0,40.5,18.168,40.5,40.5 S293.832,328,271.5,328h-80c-7.385,0-14.308-1.996-20.276-5.463c-0.262-0.174-0.532-0.336-0.816-0.477 C158.777,314.935,151,302.11,151,287.5C151,265.168,169.168,247,191.5,247z M219.026,424l-1.289-81h27.526l-1.289,81H219.026z M260.265,343H271.5c5.696,0,11.194-0.865,16.371-2.467L283.913,424h-24.937L260.265,343z M246.787,232H216.21l-1.107-81h32.793 L246.787,232z M200.102,151l1.107,81H191.5c-7.32,0-14.307,1.438-20.711,4.024L167.313,151H200.102z M152.3,151l3.833,93.762 C143.843,254.95,136,270.326,136,287.5c0,18.808,9.413,35.45,23.766,45.492L164.07,424h-24.873l-19.638-273H152.3z M351.5,448h-240 c-0.276,0-0.5-0.225-0.5-0.5V439h241v8.5C352,447.775,351.776,448,351.5,448z M363.127,423.204 c-0.243,0.268-1.068,0.796-2.407,0.796h-21.879l19.638-273h32.707L363.127,423.204z M399.5,136h-336c-4.687,0-8.5-3.813-8.5-8.5 s3.813-8.5,8.5-8.5h336c4.687,0,8.5,3.813,8.5,8.5S404.187,136,399.5,136z"/><path fill="#017a68" d="M223.5,79c4.142,0,7.5-3.357,7.5-7.5c0-9.098,7.402-16.5,16.5-16.5c4.142,0,7.5-3.357,7.5-7.5s-3.358-7.5-7.5-7.5 C230.131,40,216,54.131,216,71.5C216,75.643,219.358,79,223.5,79z"/></g></svg>